<?xml version="1.0" encoding="UTF-8"?>
<svg id="Layer_1" data-name="Layer 1" xmlns="http://www.w3.org/2000/svg" viewBox="0 0 2673.77 1552.69">
  <polygon points="72.96 1550.19 72.96 898.57 584.97 898.57 584.97 468.71 2051.91 468.71 2051.91 581.92 2589.95 581.92 2598.8 1550.19 72.96 1550.19" style="fill: #f1f2f5;"/>
  <g>
    <g>
      <rect x="648.84" y="98.61" width="1129.24" height="1451.58" rx="62.42" ry="62.42" style="fill: #1d2238;"/>
      <rect x="719.18" y="185.04" width="988.56" height="1278.72" style="fill: #fff;"/>
      <path d="m1290.08,75.82c-.44-41.95-34.56-75.82-76.62-75.82s-76.18,33.87-76.62,75.82h-71v121.4h295.22v-121.4h-71Zm-76.62,12.13c-14.93,0-27.03-12.1-27.03-27.03s12.1-27.03,27.03-27.03,27.03,12.1,27.03,27.03-12.1,27.03-27.03,27.03Z" style="fill: #f0c36a;"/>
    </g>
    <g>
      <rect x="998.23" y="318.58" width="669.13" height="40.87" style="fill: #f1f2f5;"/>
      <rect x="998.23" y="398.4" width="669.13" height="40.87" style="fill: #f1f2f5;"/>
      <rect x="998.23" y="478.21" width="326.1" height="40.87" style="fill: #f1f2f5;"/>
    </g>
    <path d="m970.36,522.08h-188.19v-206.5h188.19v206.5Zm-182.19-6h176.19v-194.5h-176.19v194.5Z" style="fill: #9ea9bd;"/>
    <polygon points="851.1 355.13 895.2 416.48 1016.79 302.12 1038.38 330 888.9 472.83 824.45 379.39 851.1 355.13" style="fill: #edb248;"/>
    <g>
      <rect x="998.23" y="581.92" width="669.13" height="40.87" style="fill: #f1f2f5;"/>
      <rect x="998.23" y="661.73" width="669.13" height="40.87" style="fill: #f1f2f5;"/>
      <rect x="998.23" y="741.55" width="326.1" height="40.87" style="fill: #f1f2f5;"/>
    </g>
    <path d="m970.36,785.42h-188.19v-206.5h188.19v206.5Zm-182.19-6h176.19v-194.5h-176.19v194.5Z" style="fill: #9ea9bd;"/>
    <polygon points="851.1 618.47 895.2 679.82 1016.79 565.46 1038.38 593.34 888.9 736.16 824.45 642.72 851.1 618.47" style="fill: #edb248;"/>
    <g>
      <rect x="998.23" y="845.26" width="669.13" height="40.87" style="fill: #f1f2f5;"/>
      <rect x="998.23" y="925.07" width="669.13" height="40.87" style="fill: #f1f2f5;"/>
      <rect x="998.23" y="1004.88" width="326.1" height="40.87" style="fill: #f1f2f5;"/>
    </g>
    <path d="m970.36,1048.76h-188.19v-206.5h188.19v206.5Zm-182.19-6h176.19v-194.5h-176.19v194.5Z" style="fill: #9ea9bd;"/>
    <polygon points="851.1 881.81 895.2 943.16 1016.79 828.79 1038.38 856.68 888.9 999.5 824.45 906.06 851.1 881.81" style="fill: #edb248;"/>
    <g>
      <rect x="998.23" y="1108.59" width="669.13" height="40.87" style="fill: #f1f2f5;"/>
      <rect x="998.23" y="1188.41" width="669.13" height="40.87" style="fill: #f1f2f5;"/>
      <rect x="998.23" y="1268.22" width="326.1" height="40.87" style="fill: #f1f2f5;"/>
    </g>
    <path d="m970.36,1312.09h-188.19v-206.5h188.19v206.5Zm-182.19-6h176.19v-194.5h-176.19v194.5Z" style="fill: #9ea9bd;"/>
    <polygon points="851.1 1145.15 895.2 1206.49 1016.79 1092.13 1038.38 1120.01 888.9 1262.84 824.45 1169.4 851.1 1145.15" style="fill: #edb248;"/>
  </g>
  <g>
    <g>
      <g>
        <rect x="1965.35" y="1238.04" width="310.83" height="312.15" style="fill: #9ea9bd;"/>
        <rect x="2102.03" y="1238.04" width="37.47" height="49.43" style="fill: #1d2238;"/>
      </g>
      <rect x="2276.18" y="1238.04" width="222.55" height="312.15" style="fill: #d2d6e1;"/>
      <rect x="2373.22" y="1238.04" width="28.49" height="49.43" style="fill: #1d2238;"/>
    </g>
    <g>
      <g>
        <rect x="1905.44" y="640.65" width="310.83" height="597.4" style="fill: #edb248;"/>
        <rect x="2042.13" y="640.65" width="37.47" height="94.59" style="fill: #1d2238;"/>
      </g>
      <rect x="2216.28" y="640.65" width="222.55" height="597.4" style="fill: #f0c36a;"/>
      <rect x="2313.31" y="640.65" width="28.49" height="94.59" style="fill: #1d2238;"/>
    </g>
    <g>
      <g>
        <rect x="1382.82" y="1238.04" width="399.77" height="312.15" style="fill: #f0c36a;"/>
        <rect x="1558.61" y="1238.04" width="48.18" height="49.43" style="fill: #1d2238;"/>
      </g>
      <rect x="1782.59" y="1238.04" width="264.53" height="312.15" style="fill: #f6dba6;"/>
      <rect x="1898.54" y="1238.04" width="48.18" height="49.43" style="fill: #1d2238;"/>
    </g>
    <g>
      <g>
        <rect x="1431.96" y="925.89" width="310.83" height="312.15" style="fill: #d2d6e1;"/>
        <rect x="1568.65" y="925.89" width="37.47" height="49.43" style="fill: #1d2238;"/>
      </g>
      <rect x="1742.8" y="925.89" width="222.55" height="312.15" style="fill: #f1f2f5;"/>
      <rect x="1839.83" y="925.89" width="28.49" height="49.43" style="fill: #1d2238;"/>
    </g>
  </g>
  <rect y="1547.69" width="2673.77" height="5" style="fill: #1d2238;"/>
  <g>
    <path d="m498.85,629.58l-10.31,6.9-54.96-82.19c-1.9-2.85-1.14-6.7,1.71-8.61h0c2.85-1.9,6.7-1.14,8.61,1.71l54.96,82.19Z" style="fill: #1d2238;"/>
    <g>
      <g>
        <path d="m444.4,651.23s4.25-35.31,13.08-36.94c8.83-1.63,34.98-.98,40.21,0,5.23.98,19.61,10.13,22.56,19.29l-55.9,54.27-19.94-36.61Z" style="fill: #eb9481;"/>
        <g>
          <path d="m392.86,354.63s11.12,13.7,14.56,33.06c1.37,7.7-.91,15.53-7.71,19.41h0s-37.92-52.47-37.92-52.47h31.08Z" style="fill: #1d2238;"/>
          <path d="m338.88,345.36h0c-32.52,0-59.15,25.14-61.55,57.05l-.5-.08-13.35,83.3c-2.94,18.34,9.54,35.59,27.88,38.53h0c18.34,2.94,32.4,8.15,38.53-27.88l.95-5.91c2.63.34,5.32.54,8.04.54h0c34.1,0,61.75-27.64,61.75-61.75v-22.05c0-34.1-27.64-61.75-61.75-61.75Z" style="fill: #eb9481;"/>
          <path d="m376.55,396.61c.5,1.62.86,3.23,1.17,4.85.18.81.28,1.62.41,2.43.13.81.26,1.62.34,2.43.19,1.62.37,3.23.45,4.85l.16,2.43.05,2.43-2.74-2.74c1.03-.01,2.06-.07,3.09-.05.53.02.93,0,1.83.08.78.1,1.54.31,2.26.61,2.94,1.2,4.72,4.39,4.53,7.37-.12,1.49-.68,2.91-1.56,4.03-.89,1.12-2.13,1.88-3.42,2.26-.65.19-1.32.24-1.96.21-.69-.05-1.15-.17-1.68-.27-1.03-.23-2.06-.49-3.09-.81h-.04c-.08-.04-.13-.12-.1-.2.02-.06.08-.11.14-.11l3.09-.04c.51,0,1.04,0,1.52-.05.49-.07.97-.2,1.42-.38,1.83-.76,3.09-2.67,3.06-4.64.01-1.97-1.26-3.86-3.08-4.59-.45-.18-.93-.3-1.41-.35-.47-.03-1-.02-1.51-.02h-3.09s-.3-.01-.3-.01v-.3c.05-6.47.03-12.94.15-19.41,0-.08.07-.15.15-.15.07,0,.12.05.14.11v.04Z" style="fill: #1d2238;"/>
          <circle cx="389.33" cy="397.07" r="4.29" style="fill: #1d2238;"/>
          <path d="m385.76,440.43s-7.11-10.35-27.82-10.08l27.82,10.08Z" style="fill: #fff;"/>
          <path d="m378.52,379.78c-.39,1.6,2.93,3.77,7.42,4.86,4.48,1.09,8.43.67,8.82-.93s-2.93-3.77-7.42-4.86c-4.48-1.09-8.43-.67-8.82.93Z" style="fill: #1d2238;"/>
          <circle cx="364.48" cy="399.06" r="4.29" style="fill: #1d2238;"/>
          <path d="m353.7,385.82c.41,1.59,4.36,1.95,8.83.79,4.47-1.15,7.75-3.38,7.34-4.97-.41-1.59-4.36-1.95-8.83-.79-4.47,1.15-7.75,3.38-7.34,4.97Z" style="fill: #1d2238;"/>
          <path d="m389.93,443.33c-3.14-.24-6.12-.88-9.05-1.65-1.48-.35-2.9-.85-4.35-1.28-1.43-.48-2.85-1-4.27-1.5-1.39-.58-2.8-1.12-4.19-1.72-1.37-.64-2.76-1.22-4.1-1.94-2.71-1.37-5.36-2.87-7.86-4.78l-.03-.02c-.05-.04-.06-.12-.02-.17.03-.04.09-.06.14-.04l16.96,6.32,16.87,6.55c.06.02.1.1.07.16-.02.05-.07.08-.12.08h-.04Z" style="fill: #1d2238;"/>
          <path d="m268.44,408.56s53.78-47.39,105.85-47.38c0,0,22.74-1,31.14,18.26,0,0-10.02-78.66-96.96-65.4-86.94,13.26-52.26,102.04-52.26,102.04l12.22-7.52Z" style="fill: #f0c36a;"/>
          <path d="m329.71,370.87s-10.59,12.86-32.72,36.24c-5.47,5.78-14.95,13.78-14.95,13.78,0,0,2.28-12.09-1.8-20.92,0,0,24.72-19.95,49.47-29.1Z" style="fill: #1d2238;"/>
          <path d="m363.88,360.03s6.81,12.33,24.16,13.18c0,0-27.73,9.11-38.54-10.17l14.38-3.01Z" style="fill: #1d2238;"/>
          <polygon points="272.9 428.24 268.81 452.39 256.22 416.08 277.33 402.4 272.9 428.24" style="fill: #1d2238;"/>
          <g>
            <ellipse cx="272.32" cy="411.58" rx="12.29" ry="15.21" style="fill: #eb9481;"/>
            <path d="m279.35,407.42c-1.13-.92-2.22-1.61-3.32-1.9-.53-.17-1.05-.25-1.54-.23-.48.02-.93.04-1.35.21-1.61.56-2.82,1.94-3.53,3.76-.2.44-.31.93-.43,1.41-.04.25-.1.49-.13.75l-.04.38-.04.27c-.02.09-.01.06-.03.09-.01-.04-.04-.06-.11-.17-.11-.22-.58-.51-.77-.5-.37.02.2.16.71.09,1.1-.13,2.5-.43,3.9-.64,1.41-.15,2.99-.37,4.46.18l.05.02c.08.03.12.12.09.2-.02.06-.08.1-.14.1-1.32.06-2.61.57-3.86,1.07-1.26.49-2.51,1.06-3.85,1.46-.67.18-1.38.37-2.16.16-.39-.1-.75-.39-.94-.75-.2-.35-.26-.74-.29-1.1-.06-1.42.16-2.82.67-4.13.51-1.31,1.31-2.52,2.38-3.45,1.05-.93,2.42-1.57,3.84-1.66,1.42-.13,2.86.3,4.03,1.08,1.16.8,2.06,1.93,2.67,3.17.04.07,0,.16-.07.2-.05.03-.12.02-.16-.02l-.05-.04Z" style="fill: #1d2238;"/>
          </g>
          <path d="m341.15,366.73s36.89-49.44,81.48-37.49c44.59,11.95-17.19,50.2-17.19,50.2,0,0-17.18-28.95-64.29-12.71Z" style="fill: #f1f2f5;"/>
          <path d="m304.58,316.41c.42,2.17-4.22,4.9-10.37,6.09-6.15,1.19-11.47.39-11.89-1.78-.42-2.17,4.22-4.9,10.37-6.09,6.15-1.19,11.47-.39,11.89,1.78Z" style="fill: #1d2238;"/>
          <path d="m330.84,490.36s-13.32-7.23-27.49-21.66c0,0,5.94,20.61,26.55,27.57l.95-5.91Z" style="fill: #1d2238;"/>
        </g>
        <g>
          <path d="m434.86,1474.28l93.45,40.75c13.94,6.08,22.85,19.96,22.57,35.17h0l-203.18-.44,10.81-75.64,76.35.17Z" style="fill: #4a4e60;"/>
          <path d="m347.73,1536.27c16.74.97,33.47,1.49,50.21,1.86,8.37.23,16.74.29,25.11.43l25.11.18,25.11-.06c8.37-.11,16.74-.13,25.11-.32,16.74-.29,33.48-.75,50.22-1.65-16.74-.97-33.47-1.5-50.21-1.86-8.37-.23-16.74-.29-25.11-.43l-25.11-.17-25.11.07c-8.37.1-16.74.13-25.11.32-16.74.29-33.48.75-50.22,1.64Z" style="fill: #1d2238;"/>
          <circle cx="390.64" cy="1506.27" r="18.45" transform="translate(-950.68 717.4) rotate(-45)" style="fill: #1d2238;"/>
          <g>
            <path d="m515.71,1507.66c-2.4-.99-4.71-1-6.9-.65-2.19.38-4.27,1.22-6.14,2.44-1.87,1.21-3.5,2.89-4.71,4.85-1.19,1.98-1.92,4.36-1.6,6.89l.39.22c.59-.8,1.08-1.65,1.76-2.37.32-.37.61-.78.95-1.13l1.03-1.06c1.43-1.35,2.97-2.59,4.65-3.64,1.64-1.09,3.37-2.07,5.16-2.91.9-.42,1.81-.81,2.73-1.17.91-.38,1.85-.73,2.79-1.03l-.11-.44Z" style="fill: #1d2238;"/>
            <path d="m491.86,1497.48c-2.4-.99-4.71-1-6.9-.65-2.19.38-4.27,1.22-6.14,2.44-1.87,1.21-3.5,2.89-4.71,4.85-1.19,1.98-1.92,4.36-1.6,6.89l.39.22c.59-.8,1.08-1.65,1.76-2.37.32-.37.61-.78.95-1.13l1.03-1.06c1.43-1.35,2.97-2.59,4.65-3.64,1.64-1.09,3.37-2.07,5.16-2.91.9-.42,1.81-.81,2.73-1.17.91-.38,1.85-.73,2.79-1.03l-.11-.44Z" style="fill: #1d2238;"/>
            <path d="m469.79,1488.24c-2.4-.99-4.71-1-6.9-.65-2.19.38-4.27,1.22-6.14,2.44-1.87,1.21-3.5,2.89-4.71,4.85-1.19,1.98-1.92,4.36-1.6,6.89l.39.22c.59-.8,1.08-1.65,1.76-2.37.32-.37.61-.78.95-1.13l1.03-1.06c1.43-1.35,2.97-2.59,4.65-3.64,1.64-1.09,3.37-2.07,5.16-2.91.9-.42,1.81-.81,2.73-1.17.91-.38,1.85-.73,2.79-1.03l-.11-.44Z" style="fill: #1d2238;"/>
          </g>
        </g>
        <g>
          <path d="m313.08,1474.28l93.45,40.75c13.94,6.08,22.85,19.96,22.57,35.17h0l-203.18-.44,10.81-75.64,76.35.17Z" style="fill: #9ea9bd;"/>
          <path d="m225.95,1536.27c16.74.97,33.47,1.49,50.21,1.86,8.37.23,16.74.29,25.11.43l25.11.18,25.11-.06c8.37-.11,16.74-.13,25.11-.32,16.74-.29,33.48-.75,50.22-1.65-16.74-.97-33.47-1.5-50.21-1.86-8.37-.23-16.74-.29-25.11-.43l-25.11-.17-25.11.07c-8.37.1-16.74.13-25.11.32-16.74.29-33.48.75-50.22,1.64Z" style="fill: #1d2238;"/>
          <circle cx="268.85" cy="1506.27" r="18.45" transform="translate(-986.35 631.28) rotate(-45)" style="fill: #1d2238;"/>
          <g>
            <path d="m393.93,1507.66c-2.4-.99-4.71-1-6.9-.65-2.19.38-4.27,1.22-6.14,2.44-1.87,1.21-3.5,2.89-4.71,4.85-1.19,1.98-1.92,4.36-1.6,6.89l.39.22c.59-.8,1.08-1.65,1.76-2.37.32-.37.61-.78.95-1.13l1.03-1.06c1.43-1.35,2.97-2.59,4.65-3.64,1.64-1.09,3.37-2.07,5.16-2.91.9-.42,1.81-.81,2.73-1.17.91-.38,1.85-.73,2.79-1.03l-.11-.44Z" style="fill: #1d2238;"/>
            <path d="m370.08,1497.48c-2.4-.99-4.71-1-6.9-.65-2.19.38-4.27,1.22-6.14,2.44-1.87,1.21-3.5,2.89-4.71,4.85-1.19,1.98-1.92,4.36-1.6,6.89l.39.22c.59-.8,1.08-1.65,1.76-2.37.32-.37.61-.78.95-1.13l1.03-1.06c1.43-1.35,2.97-2.59,4.65-3.64,1.64-1.09,3.37-2.07,5.16-2.91.9-.42,1.81-.81,2.73-1.17.91-.38,1.85-.73,2.79-1.03l-.11-.44Z" style="fill: #1d2238;"/>
            <path d="m348.01,1488.24c-2.4-.99-4.71-1-6.9-.65-2.19.38-4.27,1.22-6.14,2.44-1.87,1.21-3.5,2.89-4.71,4.85-1.19,1.98-1.92,4.36-1.6,6.89l.39.22c.59-.8,1.08-1.65,1.76-2.37.32-.37.61-.78.95-1.13l1.03-1.06c1.43-1.35,2.97-2.59,4.65-3.64,1.64-1.09,3.37-2.07,5.16-2.91.9-.42,1.81-.81,2.73-1.17.91-.38,1.85-.73,2.79-1.03l-.11-.44Z" style="fill: #1d2238;"/>
          </g>
        </g>
        <g>
          <path d="m467.17,1473.51l-18.25-374.71c-.51-10.53-1.76-21.01-3.73-31.36l-38.77-203.65-235.01-18.38s-23.08,93.88,24.21,184.25l24.35,446.83,125.42-.8-.02-1.4,121.8-.77Z" style="fill: #1d2238;"/>
          <path d="m326.54,876.06l1.6,18.69,1.49,18.7,2.98,37.41,5.47,74.86,1.36,18.72,1.24,18.72,2.47,37.45,4.93,74.89.28,4.68c.08,1.56.01,3.13.03,4.69l-.03,9.38-.06,18.76-.13,37.53-.13,37.53-.08,18.76-.2,18.76-.8,75.05-.64,37.52-.32,18.76-.43,18.76h-.34l-.08-150.05-.04-75.02-.02-37.51v-18.76s-.02-9.38-.02-9.38c-.02-1.56.04-3.13-.05-4.69l-.29-4.68-18.52-299.53.34-.02Z" style="fill: #4a4e60;"/>
        </g>
        <path d="m511.64,749.99l-32.21-50.13-74.39,20.14-19.47-133.33c-.19-1.43-.37-2.64-.53-3.6-4.87-29.33-56.76-80.35-56.76-80.35l-11.46,11.8-53.34-28.89s-44.34,17.82-71.58,52.39c-27.24,34.57-20.5,307.39-20.5,307.39,0,0,55.07,44.62,94.91,51.95,39.84,7.33,144.38-21.31,144.38-21.31,0,0-1.8-22.9-4.48-55.94l105.41-70.13Z" style="fill: #f0c36a;"/>
        <path d="m316.82,514.52l-25.12,21.56c-4.1,3.51-10.15,3.56-14.26.07-11.6-9.83-32.19-30.03-25.71-45l11.76-5.52,53.34,28.89Z" style="fill: #fff;"/>
        <path d="m316.82,514.52l12.41,13.38c3.37,3.63,9.29,2.92,11.71-1.4l3.64-6.51-16.3-17.27-11.46,11.8Z" style="fill: #fff;"/>
        <g>
          <path d="m250.49,572.31l46.37,132.56,144.23-73.03,22.82,55.97-128.36,106.22c-12.2,10.09-27.19,16.21-42.96,17.53h0c-26.77,2.24-52.79-9.52-68.78-31.1-21.73-29.33-49.25-69.52-52.04-88.35-4.67-31.53-28.47-91.61,20.13-154.08l58.58,34.29Z" style="fill: #f0c36a;"/>
          <path d="m392.48,656.5c-7.81,4.35-15.65,8.62-23.52,12.84-7.86,4.25-15.76,8.41-23.65,12.59-7.92,4.13-15.8,8.32-23.75,12.4-7.94,4.09-15.85,8.22-23.82,12.26l-2.26,1.14-.52-2.49c-1.19-5.72-2.5-11.46-3.85-17.17-1.35-5.72-2.71-11.43-4.15-17.12-2.91-11.38-5.94-22.73-9.34-33.97-3.36-11.25-7.03-22.4-11.27-33.34-2.14-5.46-4.4-10.87-6.99-16.14-2.57-5.27-5.4-10.43-8.87-15.19,3.86,4.46,7.08,9.47,10,14.6,2.87,5.17,5.51,10.48,7.88,15.89,4.79,10.82,8.81,21.94,12.5,33.16,3.62,11.24,6.94,22.58,9.87,34.01,2.99,11.43,5.67,22.9,8.02,34.5l-2.78-1.35c7.97-4.03,15.99-7.96,23.99-11.92,7.99-3.98,16.04-7.85,24.06-11.78,8.04-3.88,16.08-7.78,24.16-11.59,8.07-3.84,16.16-7.62,24.29-11.34Z" style="fill: #1d2238;"/>
          <path d="m171.78,692.1l4.81,8.7,4.75,8.73c3.18,5.81,6.37,11.62,9.6,17.39,3.21,5.79,6.43,11.57,9.73,17.31l4.96,8.59c1.66,2.88,3.3,5.77,4.91,8.66,6.49,11.51,12.85,23.16,21.58,32.76,2.22,2.34,4.48,4.65,6.99,6.63,1.21,1.05,2.54,1.94,3.83,2.88,1.35.84,2.68,1.73,4.1,2.46,5.6,3.08,11.79,5.04,18.12,6.09,12.71,2.13,25.95.59,38.33-3.25,6.21-1.92,12.23-4.45,17.95-7.56,2.85-1.57,5.62-3.27,8.29-5.11,2.67-1.85,5.18-3.88,7.77-5.98,10.29-8.34,20.63-16.62,30.99-24.89l15.6-12.32,7.8-6.16,7.85-6.1-7.46,6.57-7.51,6.51-15.02,13.01c-10.06,8.63-20.13,17.23-30.25,25.78-2.5,2.13-5.09,4.33-7.82,6.32-2.75,1.96-5.6,3.77-8.53,5.44-5.88,3.31-12.09,6.02-18.5,8.11-6.42,2.07-13.07,3.47-19.81,4.15-6.74.65-13.58.55-20.32-.56-6.71-1.15-13.33-3.27-19.34-6.6-1.52-.79-2.95-1.75-4.4-2.67-1.39-1.01-2.81-1.98-4.1-3.11-2.68-2.14-5.07-4.58-7.35-7.09-4.48-5.1-8.35-10.64-11.8-16.36-3.49-5.71-6.61-11.59-9.71-17.44-1.55-2.93-3.1-5.84-4.69-8.73-1.6-2.91-3.19-5.82-4.74-8.75-3.11-5.86-6.17-11.74-9.16-17.65-2.97-5.92-5.9-11.87-8.81-17.82l-4.35-8.94-4.27-8.97Z" style="fill: #1d2238;"/>
          <path d="m280.03,752.7c-.36-1.2-.64-2.42-.9-3.65-.25-1.23-.56-2.47-.63-3.72-.19-2.5-.43-5.04-.2-7.56.17-5.07,1.38-10.09,3.11-14.87,1.74-4.8,4.33-9.26,7.46-13.25,3.15-3.95,6.91-7.51,11.42-9.8-2.82,4.14-5.27,8.22-7.49,12.4-2.2,4.17-4.19,8.39-5.78,12.76-1.58,4.37-3.07,8.8-4.07,13.42-.66,2.29-.97,4.64-1.53,7-.5,2.37-.77,4.78-1.4,7.26Z" style="fill: #1d2238;"/>
        </g>
        <path d="m478.16,739.61l-59.54-24.88c-3.71-1.55-4.57-6.42-1.62-9.15l153.59-142.26c2.7-2.5,7.03-1.71,8.68,1.57l32.51,64.49c1.24,2.46.61,5.44-1.52,7.19l-124.44,101.92c-2.15,1.76-5.09,2.19-7.65,1.12Z" style="fill: #4a4e60;"/>
        <path d="m405.44,820.64c-.97-6.12-1.76-12.24-2.47-18.38-.37-3.07-.7-6.13-1.01-9.21-.32-3.07-.64-6.14-.9-9.21-.59-6.14-1.05-12.29-1.52-18.44-.26-3.07-.41-6.16-.62-9.23-.19-3.08-.41-6.15-.55-9.24l-.05-1.21.98-.53c3.02-1.64,6.02-3.32,9.06-4.93,3.04-1.6,6.06-3.25,9.13-4.81,3.06-1.58,6.12-3.15,9.21-4.68,3.08-1.54,6.19-3.04,9.32-4.48-2.83,1.97-5.69,3.9-8.58,5.78-2.88,1.9-5.78,3.74-8.69,5.58-2.9,1.86-5.85,3.63-8.77,5.44-2.93,1.81-5.89,3.55-8.84,5.33l.93-1.74c.3,3.07.51,6.15.75,9.22.22,3.08.5,6.15.68,9.23.4,6.16.8,12.31,1.09,18.48.17,3.08.3,6.16.41,9.25.13,3.08.23,6.17.3,9.26.17,6.17.25,12.35.14,18.54Z" style="fill: #1d2238;"/>
        <g>
          <path d="m555.24,691.34c-.23-1.53-.66-3.07-1.03-4.55-.77-3.08-1.5-6.17-2.25-9.26-1.04-4.29-2.09-8.59-3.13-12.88-1.06-4.37-5.47-7.05-9.84-5.99-4.37,1.06-7.05,5.47-5.99,9.84l.3,1.23c-1.92-1.63-4.56-2.35-7.19-1.71-4.37,1.06-7.05,5.47-5.99,9.84.33,1.35.66,2.71.99,4.06-.18-.43-.55-.75-.94-1.02-2.63-1.79-7-1.36-8.74,1.5-1.05,1.71-.71,3.69-.57,5.59.63,8.65,1.89,17.29,2.83,25.92l-15.84,14.73,3.62,5.65c3.27-1.13,6.3-1.77,9.57-2.9,4.35-1.5,8.81-2.71,13.02-4.59,3.36-1.49,6.24-3.62,9.02-5.99,5.35-4.56,10.15-9.77,14.7-15.11,2.09-2.45,4.15-4.94,6.1-7.51,1.59-2.1,1.71-4.46,1.35-6.83Z" style="fill: #eb9481;"/>
          <path d="m513.69,713.9s-1.78,6.82,1.57,11.84c0,0-5.88-1.37-3.83-9.74l2.26-2.1Z" style="fill: #1d2238;"/>
          <path d="m533.3,669.73c2.25,1.77,4.02,4.25,4.87,7.05.88,2.74,1.57,5.51,2.28,8.28.68,2.78,1.34,5.56,1.92,8.36l.86,4.2c.25,1.41.53,2.81.75,4.23-.44-1.36-.81-2.74-1.22-4.11l-1.13-4.14c-.75-2.76-1.44-5.53-2.14-8.3l-2.04-8.31c-.33-1.37-.87-2.66-1.58-3.88-.7-1.23-1.56-2.37-2.55-3.4Z" style="fill: #1d2238;"/>
          <path d="m521.11,681.93c2.12,1.35,4.07,3.32,4.79,5.91.73,2.46,1.25,4.94,1.78,7.42.5,2.49.99,4.98,1.39,7.48l.6,3.76c.16,1.26.35,2.51.48,3.78-.35-1.22-.64-2.46-.96-3.69l-.87-3.7c-.58-2.47-1.09-4.95-1.62-7.43-.51-2.48-1-4.97-1.54-7.42-.25-1.21-.79-2.31-1.52-3.32-.7-1.03-1.58-1.95-2.53-2.79Z" style="fill: #1d2238;"/>
        </g>
      </g>
      <path d="m425.87,704.87c5.9-5.77,11.91-11.44,17.88-17.13,5.96-5.71,12-11.34,18.01-16.98l18.14-16.84,18.24-16.73c12.22-11.09,24.43-22.19,36.74-33.18l9.22-8.26,9.27-8.21c6.17-5.48,12.35-10.94,18.57-16.36l1.5-1.31.87,1.73,7.04,13.97,6.97,14.01,6.88,14.06c2.31,4.68,4.57,9.38,6.81,14.09-2.6-4.52-5.18-9.06-7.71-13.62l-7.64-13.66-7.55-13.71-7.48-13.74,2.37.42c-6.04,5.62-12.11,11.21-18.2,16.78l-9.12,8.36-9.17,8.31c-12.2,11.11-24.51,22.1-36.81,33.1l-18.53,16.41-18.63,16.3c-6.24,5.4-12.46,10.82-18.76,16.16-6.28,5.35-12.54,10.73-18.9,16.01Z" style="fill: #1d2238;"/>
    </g>
  </g>
</svg>